<svg width="207.84609690826525" height="100.0" xmlns="http://www.w3.org/2000/svg">
	<polygon points="26.0,-15 0,0 10,10 26.0,15" fill="#0b0b0b"/>
	<polygon points="0,0 0,20 10,30 26.0,15" fill="#1a1a1a"/>
	<polygon points="26.0,5 0,20 10,30 26.0,35" fill="#141414"/>
	<polygon points="0,20 0,40 10,50 26.0,35" fill="#101010"/>
	<polygon points="26.0,25 0,40 10,50 26.0,55" fill="#1d1d1d"/>
	<polygon points="0,40 0,60 10,70 26.0,55" fill="#070707"/>
	<polygon points="26.0,45 0,60 10,70 26.0,75" fill="#060606"/>
	<polygon points="0,60 0,80 10,90 26.0,75" fill="#1b1b1b"/>
	<polygon points="26.0,65 0,80 10,90 26.0,95" fill="#050505"/>
	<polygon points="0,80 0,100 10,110 26.0,95" fill="#101010"/>
	<polygon points="26.0,85 0,100 10,110 26.0,115" fill="#0d0d0d"/>
	<polygon points="17.3,-10 17.3,10 27.3,20 43.3,4" fill="#0f0f0f"/>
	<polygon points="43.3,-4 17.3,10 27.3,20 43.3,25" fill="#191919"/>
	<polygon points="17.3,10 17.3,30 27.3,40 43.3,25" fill="#121212"/>
	<polygon points="43.3,15 17.3,30 27.3,40 43.3,45" fill="#0f0f0f"/>
	<polygon points="17.3,30 17.3,50 27.3,60 43.3,45" fill="#171717"/>
	<polygon points="43.3,35 17.3,50 27.3,60 43.3,65" fill="#191919"/>
	<polygon points="17.3,50 17.3,70 27.3,80 43.3,65" fill="#080808"/>
	<polygon points="43.3,55 17.3,70 27.3,80 43.3,85" fill="#171717"/>
	<polygon points="17.3,70 17.3,90 27.3,100 43.3,85" fill="#0a0a0a"/>
	<polygon points="43.3,75 17.3,90 27.3,100 43.3,105" fill="#181818"/>
	<polygon points="17.3,90 17.3,110 27.3,120 43.3,105" fill="#101010"/>
	<polygon points="60.6,-15 34.6,0 44.6,10 60.6,15" fill="#080808"/>
	<polygon points="34.6,0 34.6,20 44.6,30 60.6,15" fill="#1a1a1a"/>
	<polygon points="60.6,5 34.6,20 44.6,30 60.6,35" fill="#0f0f0f"/>
	<polygon points="34.6,20 34.6,40 44.6,50 60.6,35" fill="#070707"/>
	<polygon points="60.6,25 34.6,40 44.6,50 60.6,55" fill="#0c0c0c"/>
	<polygon points="34.6,40 34.6,60 44.6,70 60.6,55" fill="#181818"/>
	<polygon points="60.6,45 34.6,60 44.6,70 60.6,75" fill="#0a0a0a"/>
	<polygon points="34.6,60 34.6,80 44.6,90 60.6,75" fill="#1d1d1d"/>
	<polygon points="60.6,65 34.6,80 44.6,90 60.6,95" fill="#141414"/>
	<polygon points="34.6,80 34.6,100 44.6,110 60.6,95" fill="#0c0c0c"/>
	<polygon points="60.6,85 34.6,100 44.6,110 60.6,115" fill="#141414"/>
	<polygon points="52.0,-10 52.0,10 62.0,20 77.9,4" fill="#1d1d1d"/>
	<polygon points="77.9,-4 52.0,10 62.0,20 77.9,25" fill="#070707"/>
	<polygon points="52.0,10 52.0,30 62.0,40 77.9,25" fill="#1b1b1b"/>
	<polygon points="77.9,15 52.0,30 62.0,40 77.9,45" fill="#1c1c1c"/>
	<polygon points="52.0,30 52.0,50 62.0,60 77.9,45" fill="#1b1b1b"/>
	<polygon points="77.9,35 52.0,50 62.0,60 77.9,65" fill="#1d1d1d"/>
	<polygon points="52.0,50 52.0,70 62.0,80 77.9,65" fill="#181818"/>
	<polygon points="77.9,55 52.0,70 62.0,80 77.9,85" fill="#080808"/>
	<polygon points="52.0,70 52.0,90 62.0,100 77.9,85" fill="#0d0d0d"/>
	<polygon points="77.9,75 52.0,90 62.0,100 77.9,105" fill="#0a0a0a"/>
	<polygon points="52.0,90 52.0,110 62.0,120 77.9,105" fill="#0d0d0d"/>
	<polygon points="95.3,-15 69.3,0 79.3,10 95.3,15" fill="#131313"/>
	<polygon points="69.3,0 69.3,20 79.3,30 95.3,15" fill="#070707"/>
	<polygon points="95.3,5 69.3,20 79.3,30 95.3,35" fill="#101010"/>
	<polygon points="69.3,20 69.3,40 79.3,50 95.3,35" fill="#0f0f0f"/>
	<polygon points="95.3,25 69.3,40 79.3,50 95.3,55" fill="#141414"/>
	<polygon points="69.3,40 69.3,60 79.3,70 95.3,55" fill="#111111"/>
	<polygon points="95.3,45 69.3,60 79.3,70 95.3,75" fill="#070707"/>
	<polygon points="69.3,60 69.3,80 79.3,90 95.3,75" fill="#1d1d1d"/>
	<polygon points="95.3,65 69.3,80 79.3,90 95.3,95" fill="#1c1c1c"/>
	<polygon points="69.3,80 69.3,100 79.3,110 95.3,95" fill="#1a1a1a"/>
	<polygon points="95.3,85 69.3,100 79.3,110 95.3,115" fill="#181818"/>
	<polygon points="86.6,-10 86.6,10 96.6,20 112.6,4" fill="#0a0a0a"/>
	<polygon points="112.6,-4 86.6,10 96.6,20 112.6,25" fill="#151515"/>
	<polygon points="86.6,10 86.6,30 96.6,40 112.6,25" fill="#0d0d0d"/>
	<polygon points="112.6,15 86.6,30 96.6,40 112.6,45" fill="#121212"/>
	<polygon points="86.6,30 86.6,50 96.6,60 112.6,45" fill="#0d0d0d"/>
	<polygon points="112.6,35 86.6,50 96.6,60 112.6,65" fill="#1a1a1a"/>
	<polygon points="86.6,50 86.6,70 96.6,80 112.6,65" fill="#111111"/>
	<polygon points="112.6,55 86.6,70 96.6,80 112.6,85" fill="#0a0a0a"/>
	<polygon points="86.6,70 86.6,90 96.6,100 112.6,85" fill="#101010"/>
	<polygon points="112.6,75 86.6,90 96.6,100 112.6,105" fill="#0b0b0b"/>
	<polygon points="86.6,90 86.6,110 96.6,120 112.6,105" fill="#151515"/>
	<polygon points="129.9,-15 103.9,0 113.9,10 129.9,15" fill="#0e0e0e"/>
	<polygon points="103.9,0 103.9,20 113.9,30 129.9,15" fill="#1e1e1e"/>
	<polygon points="129.9,5 103.9,20 113.9,30 129.9,35" fill="#0a0a0a"/>
	<polygon points="103.9,20 103.9,40 113.9,50 129.9,35" fill="#080808"/>
	<polygon points="129.9,25 103.9,40 113.9,50 129.9,55" fill="#1a1a1a"/>
	<polygon points="103.9,40 103.9,60 113.9,70 129.9,55" fill="#060606"/>
	<polygon points="129.9,45 103.9,60 113.9,70 129.9,75" fill="#151515"/>
	<polygon points="103.9,60 103.9,80 113.9,90 129.9,75" fill="#080808"/>
	<polygon points="129.9,65 103.9,80 113.9,90 129.9,95" fill="#171717"/>
	<polygon points="103.9,80 103.9,100 113.9,110 129.9,95" fill="#101010"/>
	<polygon points="129.9,85 103.9,100 113.9,110 129.9,115" fill="#1b1b1b"/>
	<polygon points="121.2,-10 121.2,10 131.2,20 147.2,4" fill="#141414"/>
	<polygon points="147.2,-4 121.2,10 131.2,20 147.2,25" fill="#0e0e0e"/>
	<polygon points="121.2,10 121.2,30 131.2,40 147.2,25" fill="#111111"/>
	<polygon points="147.2,15 121.2,30 131.2,40 147.2,45" fill="#141414"/>
	<polygon points="121.2,30 121.2,50 131.2,60 147.2,45" fill="#131313"/>
	<polygon points="147.2,35 121.2,50 131.2,60 147.2,65" fill="#080808"/>
	<polygon points="121.2,50 121.2,70 131.2,80 147.2,65" fill="#1d1d1d"/>
	<polygon points="147.2,55 121.2,70 131.2,80 147.2,85" fill="#1c1c1c"/>
	<polygon points="121.2,70 121.2,90 131.2,100 147.2,85" fill="#060606"/>
	<polygon points="147.2,75 121.2,90 131.2,100 147.2,105" fill="#050505"/>
	<polygon points="121.2,90 121.2,110 131.2,120 147.2,105" fill="#080808"/>
	<polygon points="164.5,-15 138.6,0 148.6,10 164.5,15" fill="#0a0a0a"/>
	<polygon points="138.6,0 138.6,20 148.6,30 164.5,15" fill="#151515"/>
	<polygon points="164.5,5 138.6,20 148.6,30 164.5,35" fill="#1c1c1c"/>
	<polygon points="138.6,20 138.6,40 148.6,50 164.5,35" fill="#111111"/>
	<polygon points="164.5,25 138.6,40 148.6,50 164.5,55" fill="#080808"/>
	<polygon points="138.6,40 138.6,60 148.6,70 164.5,55" fill="#0a0a0a"/>
	<polygon points="164.5,45 138.6,60 148.6,70 164.5,75" fill="#111111"/>
	<polygon points="138.6,60 138.6,80 148.6,90 164.5,75" fill="#141414"/>
	<polygon points="164.5,65 138.6,80 148.6,90 164.5,95" fill="#101010"/>
	<polygon points="138.6,80 138.6,100 148.6,110 164.5,95" fill="#1d1d1d"/>
	<polygon points="164.5,85 138.6,100 148.6,110 164.5,115" fill="#0d0d0d"/>
	<polygon points="155.9,-10 155.9,10 165.9,20 181.9,4" fill="#0c0c0c"/>
	<polygon points="181.9,-4 155.9,10 165.9,20 181.9,25" fill="#090909"/>
	<polygon points="155.9,10 155.9,30 165.9,40 181.9,25" fill="#1c1c1c"/>
	<polygon points="181.9,15 155.9,30 165.9,40 181.9,45" fill="#101010"/>
	<polygon points="155.9,30 155.9,50 165.9,60 181.9,45" fill="#060606"/>
	<polygon points="181.9,35 155.9,50 165.9,60 181.9,65" fill="#050505"/>
	<polygon points="155.9,50 155.9,70 165.9,80 181.9,65" fill="#1a1a1a"/>
	<polygon points="181.9,55 155.9,70 165.9,80 181.9,85" fill="#0c0c0c"/>
	<polygon points="155.9,70 155.9,90 165.9,100 181.9,85" fill="#141414"/>
	<polygon points="181.9,75 155.9,90 165.9,100 181.9,105" fill="#181818"/>
	<polygon points="155.9,90 155.9,110 165.9,120 181.9,105" fill="#070707"/>
	<polygon points="199.2,-15 173.2,0 183.2,10 199.2,15" fill="#171717"/>
	<polygon points="173.2,0 173.2,20 183.2,30 199.2,15" fill="#1d1d1d"/>
	<polygon points="199.2,5 173.2,20 183.2,30 199.2,35" fill="#101010"/>
	<polygon points="173.2,20 173.2,40 183.2,50 199.2,35" fill="#191919"/>
	<polygon points="199.2,25 173.2,40 183.2,50 199.2,55" fill="#0d0d0d"/>
	<polygon points="173.2,40 173.2,60 183.2,70 199.2,55" fill="#1c1c1c"/>
	<polygon points="199.2,45 173.2,60 183.2,70 199.2,75" fill="#060606"/>
	<polygon points="173.2,60 173.2,80 183.2,90 199.2,75" fill="#0f0f0f"/>
	<polygon points="199.2,65 173.2,80 183.2,90 199.2,95" fill="#0c0c0c"/>
	<polygon points="173.2,80 173.2,100 183.2,110 199.2,95" fill="#080808"/>
	<polygon points="199.2,85 173.2,100 183.2,110 199.2,115" fill="#171717"/>
	<polygon points="190.5,-10 190.5,10 200.5,20 216.5,4" fill="#0d0d0d"/>
	<polygon points="216.5,-4 190.5,10 200.5,20 216.5,25" fill="#0b0b0b"/>
	<polygon points="190.5,10 190.5,30 200.5,40 216.5,25" fill="#1c1c1c"/>
	<polygon points="216.5,15 190.5,30 200.5,40 216.5,45" fill="#171717"/>
	<polygon points="190.5,30 190.5,50 200.5,60 216.5,45" fill="#191919"/>
	<polygon points="216.5,35 190.5,50 200.5,60 216.5,65" fill="#131313"/>
	<polygon points="190.5,50 190.5,70 200.5,80 216.5,65" fill="#121212"/>
	<polygon points="216.5,55 190.5,70 200.5,80 216.5,85" fill="#070707"/>
	<polygon points="190.5,70 190.5,90 200.5,100 216.5,85" fill="#171717"/>
	<polygon points="216.5,75 190.5,90 200.5,100 216.5,105" fill="#121212"/>
	<polygon points="190.5,90 190.5,110 200.5,120 216.5,105" fill="#080808"/>
</svg>