<svg width="484.9742261192856" height="100.0" xmlns="http://www.w3.org/2000/svg">
	<polygon points="26.0,-15 0,0 10,10 26.0,15" fill="#191919"/>
	<polygon points="0,0 0,20 10,30 26.0,15" fill="#1d1d1d"/>
	<polygon points="26.0,5 0,20 10,30 26.0,35" fill="#101010"/>
	<polygon points="0,20 0,40 10,50 26.0,35" fill="#050505"/>
	<polygon points="26.0,25 0,40 10,50 26.0,55" fill="#0c0c0c"/>
	<polygon points="0,40 0,60 10,70 26.0,55" fill="#131313"/>
	<polygon points="26.0,45 0,60 10,70 26.0,75" fill="#1c1c1c"/>
	<polygon points="0,60 0,80 10,90 26.0,75" fill="#0e0e0e"/>
	<polygon points="26.0,65 0,80 10,90 26.0,95" fill="#0a0a0a"/>
	<polygon points="0,80 0,100 10,110 26.0,95" fill="#131313"/>
	<polygon points="26.0,85 0,100 10,110 26.0,115" fill="#161616"/>
	<polygon points="17.3,-10 17.3,10 27.3,20 43.3,4" fill="#141414"/>
	<polygon points="43.3,-4 17.3,10 27.3,20 43.3,25" fill="#0f0f0f"/>
	<polygon points="17.3,10 17.3,30 27.3,40 43.3,25" fill="#151515"/>
	<polygon points="43.3,15 17.3,30 27.3,40 43.3,45" fill="#C4C4C4"/>
	<polygon points="17.3,30 17.3,50 27.3,60 43.3,45" fill="#E0E0E0"/>
	<polygon points="43.3,35 17.3,50 27.3,60 43.3,65" fill="#E0E0E0"/>
	<polygon points="17.3,50 17.3,70 27.3,80 43.3,65" fill="#E0E0E0"/>
	<polygon points="43.3,55 17.3,70 27.3,80 43.3,85" fill="#E0E0E0"/>
	<polygon points="17.3,70 17.3,90 27.3,100 43.3,85" fill="#0a0a0a"/>
	<polygon points="43.3,75 17.3,90 27.3,100 43.3,105" fill="#1c1c1c"/>
	<polygon points="17.3,90 17.3,110 27.3,120 43.3,105" fill="#0e0e0e"/>
	<polygon points="60.6,-15 34.6,0 44.6,10 60.6,15" fill="#0a0a0a"/>
	<polygon points="34.6,0 34.6,20 44.6,30 60.6,15" fill="#0b0b0b"/>
	<polygon points="60.6,5 34.6,20 44.6,30 60.6,35" fill="#080808"/>
	<polygon points="34.6,20 34.6,40 44.6,50 60.6,35" fill="#C4C4C4"/>
	<polygon points="60.6,25 34.6,40 44.6,50 60.6,55" fill="#C4C4C4"/>
	<polygon points="34.6,40 34.6,60 44.6,70 60.6,55" fill="#0f0f0f"/>
	<polygon points="60.6,45 34.6,60 44.6,70 60.6,75" fill="#181818"/>
	<polygon points="34.6,60 34.6,80 44.6,90 60.6,75" fill="#0c0c0c"/>
	<polygon points="60.6,65 34.6,80 44.6,90 60.6,95" fill="#0f0f0f"/>
	<polygon points="34.6,80 34.6,100 44.6,110 60.6,95" fill="#181818"/>
	<polygon points="60.6,85 34.6,100 44.6,110 60.6,115" fill="#171717"/>
	<polygon points="52.0,-10 52.0,10 62.0,20 77.9,4" fill="#0a0a0a"/>
	<polygon points="77.9,-4 52.0,10 62.0,20 77.9,25" fill="#060606"/>
	<polygon points="52.0,10 52.0,30 62.0,40 77.9,25" fill="#141414"/>
	<polygon points="77.9,15 52.0,30 62.0,40 77.9,45" fill="#C4C4C4"/>
	<polygon points="52.0,30 52.0,50 62.0,60 77.9,45" fill="#C4C4C4"/>
	<polygon points="77.9,35 52.0,50 62.0,60 77.9,65" fill="#0a0a0a"/>
	<polygon points="52.0,50 52.0,70 62.0,80 77.9,65" fill="#151515"/>
	<polygon points="77.9,55 52.0,70 62.0,80 77.9,85" fill="#0c0c0c"/>
	<polygon points="52.0,70 52.0,90 62.0,100 77.9,85" fill="#0f0f0f"/>
	<polygon points="77.9,75 52.0,90 62.0,100 77.9,105" fill="#080808"/>
	<polygon points="52.0,90 52.0,110 62.0,120 77.9,105" fill="#191919"/>
	<polygon points="95.3,-15 69.3,0 79.3,10 95.3,15" fill="#151515"/>
	<polygon points="69.3,0 69.3,20 79.3,30 95.3,15" fill="#1d1d1d"/>
	<polygon points="95.3,5 69.3,20 79.3,30 95.3,35" fill="#1d1d1d"/>
	<polygon points="69.3,20 69.3,40 79.3,50 95.3,35" fill="#C4C4C4"/>
	<polygon points="95.3,25 69.3,40 79.3,50 95.3,55" fill="#A5A5A5"/>
	<polygon points="69.3,40 69.3,60 79.3,70 95.3,55" fill="#A5A5A5"/>
	<polygon points="95.3,45 69.3,60 79.3,70 95.3,75" fill="#A5A5A5"/>
	<polygon points="69.3,60 69.3,80 79.3,90 95.3,75" fill="#A5A5A5"/>
	<polygon points="95.3,65 69.3,80 79.3,90 95.3,95" fill="#101010"/>
	<polygon points="69.3,80 69.3,100 79.3,110 95.3,95" fill="#131313"/>
	<polygon points="95.3,85 69.3,100 79.3,110 95.3,115" fill="#0d0d0d"/>
	<polygon points="86.6,-10 86.6,10 96.6,20 112.6,4" fill="#0a0a0a"/>
	<polygon points="112.6,-4 86.6,10 96.6,20 112.6,25" fill="#0b0b0b"/>
	<polygon points="86.6,10 86.6,30 96.6,40 112.6,25" fill="#131313"/>
	<polygon points="112.6,15 86.6,30 96.6,40 112.6,45" fill="#1e1e1e"/>
	<polygon points="86.6,30 86.6,50 96.6,60 112.6,45" fill="#1d1d1d"/>
	<polygon points="112.6,35 86.6,50 96.6,60 112.6,65" fill="#050505"/>
	<polygon points="86.6,50 86.6,70 96.6,80 112.6,65" fill="#141414"/>
	<polygon points="112.6,55 86.6,70 96.6,80 112.6,85" fill="#1d1d1d"/>
	<polygon points="86.6,70 86.6,90 96.6,100 112.6,85" fill="#1d1d1d"/>
	<polygon points="112.6,75 86.6,90 96.6,100 112.6,105" fill="#101010"/>
	<polygon points="86.6,90 86.6,110 96.6,120 112.6,105" fill="#0b0b0b"/>
	<polygon points="129.9,-15 103.9,0 113.9,10 129.9,15" fill="#0a0a0a"/>
	<polygon points="103.9,0 103.9,20 113.9,30 129.9,15" fill="#161616"/>
	<polygon points="129.9,5 103.9,20 113.9,30 129.9,35" fill="#161616"/>
	<polygon points="103.9,20 103.9,40 113.9,50 129.9,35" fill="#090909"/>
	<polygon points="129.9,25 103.9,40 113.9,50 129.9,55" fill="#C4C4C4"/>
	<polygon points="103.9,40 103.9,60 113.9,70 129.9,55" fill="#E0E0E0"/>
	<polygon points="129.9,45 103.9,60 113.9,70 129.9,75" fill="#E0E0E0"/>
	<polygon points="103.9,60 103.9,80 113.9,90 129.9,75" fill="#E0E0E0"/>
	<polygon points="129.9,65 103.9,80 113.9,90 129.9,95" fill="#1b1b1b"/>
	<polygon points="103.9,80 103.9,100 113.9,110 129.9,95" fill="#171717"/>
	<polygon points="129.9,85 103.9,100 113.9,110 129.9,115" fill="#161616"/>
	<polygon points="121.2,-10 121.2,10 131.2,20 147.2,4" fill="#111111"/>
	<polygon points="147.2,-4 121.2,10 131.2,20 147.2,25" fill="#181818"/>
	<polygon points="121.2,10 121.2,30 131.2,40 147.2,25" fill="#0b0b0b"/>
	<polygon points="147.2,15 121.2,30 131.2,40 147.2,45" fill="#C4C4C4"/>
	<polygon points="121.2,30 121.2,50 131.2,60 147.2,45" fill="#C4C4C4"/>
	<polygon points="147.2,35 121.2,50 131.2,60 147.2,65" fill="#131313"/>
	<polygon points="121.2,50 121.2,70 131.2,80 147.2,65" fill="#C4C4C4"/>
	<polygon points="147.2,55 121.2,70 131.2,80 147.2,85" fill="#0b0b0b"/>
	<polygon points="121.2,70 121.2,90 131.2,100 147.2,85" fill="#0b0b0b"/>
	<polygon points="147.2,75 121.2,90 131.2,100 147.2,105" fill="#1a1a1a"/>
	<polygon points="121.2,90 121.2,110 131.2,120 147.2,105" fill="#151515"/>
	<polygon points="164.5,-15 138.6,0 148.6,10 164.5,15" fill="#101010"/>
	<polygon points="138.6,0 138.6,20 148.6,30 164.5,15" fill="#161616"/>
	<polygon points="164.5,5 138.6,20 148.6,30 164.5,35" fill="#1e1e1e"/>
	<polygon points="138.6,20 138.6,40 148.6,50 164.5,35" fill="#C4C4C4"/>
	<polygon points="164.5,25 138.6,40 148.6,50 164.5,55" fill="#C4C4C4"/>
	<polygon points="138.6,40 138.6,60 148.6,70 164.5,55" fill="#1b1b1b"/>
	<polygon points="164.5,45 138.6,60 148.6,70 164.5,75" fill="#C4C4C4"/>
	<polygon points="138.6,60 138.6,80 148.6,90 164.5,75" fill="#111111"/>
	<polygon points="164.5,65 138.6,80 148.6,90 164.5,95" fill="#131313"/>
	<polygon points="138.6,80 138.6,100 148.6,110 164.5,95" fill="#131313"/>
	<polygon points="164.5,85 138.6,100 148.6,110 164.5,115" fill="#0c0c0c"/>
	<polygon points="155.9,-10 155.9,10 165.9,20 181.9,4" fill="#1b1b1b"/>
	<polygon points="181.9,-4 155.9,10 165.9,20 181.9,25" fill="#1d1d1d"/>
	<polygon points="155.9,10 155.9,30 165.9,40 181.9,25" fill="#1d1d1d"/>
	<polygon points="181.9,15 155.9,30 165.9,40 181.9,45" fill="#0d0d0d"/>
	<polygon points="155.9,30 155.9,50 165.9,60 181.9,45" fill="#C4C4C4"/>
	<polygon points="181.9,35 155.9,50 165.9,60 181.9,65" fill="#A5A5A5"/>
	<polygon points="155.9,50 155.9,70 165.9,80 181.9,65" fill="#A5A5A5"/>
	<polygon points="181.9,55 155.9,70 165.9,80 181.9,85" fill="#A5A5A5"/>
	<polygon points="155.9,70 155.9,90 165.9,100 181.9,85" fill="#151515"/>
	<polygon points="181.9,75 155.9,90 165.9,100 181.9,105" fill="#111111"/>
	<polygon points="155.9,90 155.9,110 165.9,120 181.9,105" fill="#1d1d1d"/>
	<polygon points="199.2,-15 173.2,0 183.2,10 199.2,15" fill="#171717"/>
	<polygon points="173.2,0 173.2,20 183.2,30 199.2,15" fill="#060606"/>
	<polygon points="199.2,5 173.2,20 183.2,30 199.2,35" fill="#060606"/>
	<polygon points="173.2,20 173.2,40 183.2,50 199.2,35" fill="#121212"/>
	<polygon points="199.2,25 173.2,40 183.2,50 199.2,55" fill="#121212"/>
	<polygon points="173.2,40 173.2,60 183.2,70 199.2,55" fill="#151515"/>
	<polygon points="199.2,45 173.2,60 183.2,70 199.2,75" fill="#171717"/>
	<polygon points="173.2,60 173.2,80 183.2,90 199.2,75" fill="#1d1d1d"/>
	<polygon points="199.2,65 173.2,80 183.2,90 199.2,95" fill="#181818"/>
	<polygon points="173.2,80 173.2,100 183.2,110 199.2,95" fill="#0a0a0a"/>
	<polygon points="199.2,85 173.2,100 183.2,110 199.2,115" fill="#080808"/>
	<polygon points="190.5,-10 190.5,10 200.5,20 216.5,4" fill="#070707"/>
	<polygon points="216.5,-4 190.5,10 200.5,20 216.5,25" fill="#181818"/>
	<polygon points="190.5,10 190.5,30 200.5,40 216.5,25" fill="#050505"/>
	<polygon points="216.5,15 190.5,30 200.5,40 216.5,45" fill="#C4C4C4"/>
	<polygon points="190.5,30 190.5,50 200.5,60 216.5,45" fill="#E0E0E0"/>
	<polygon points="216.5,35 190.5,50 200.5,60 216.5,65" fill="#E0E0E0"/>
	<polygon points="190.5,50 190.5,70 200.5,80 216.5,65" fill="#E0E0E0"/>
	<polygon points="216.5,55 190.5,70 200.5,80 216.5,85" fill="#E0E0E0"/>
	<polygon points="190.5,70 190.5,90 200.5,100 216.5,85" fill="#161616"/>
	<polygon points="216.5,75 190.5,90 200.5,100 216.5,105" fill="#0e0e0e"/>
	<polygon points="190.5,90 190.5,110 200.5,120 216.5,105" fill="#161616"/>
	<polygon points="233.8,-15 207.8,0 217.8,10 233.8,15" fill="#080808"/>
	<polygon points="207.8,0 207.8,20 217.8,30 233.8,15" fill="#0f0f0f"/>
	<polygon points="233.8,5 207.8,20 217.8,30 233.8,35" fill="#0b0b0b"/>
	<polygon points="207.8,20 207.8,40 217.8,50 233.8,35" fill="#C4C4C4"/>
	<polygon points="233.8,25 207.8,40 217.8,50 233.8,55" fill="#C4C4C4"/>
	<polygon points="207.8,40 207.8,60 217.8,70 233.8,55" fill="#0b0b0b"/>
	<polygon points="233.8,45 207.8,60 217.8,70 233.8,75" fill="#C4C4C4"/>
	<polygon points="207.8,60 207.8,80 217.8,90 233.8,75" fill="#060606"/>
	<polygon points="233.8,65 207.8,80 217.8,90 233.8,95" fill="#1a1a1a"/>
	<polygon points="207.8,80 207.8,100 217.8,110 233.8,95" fill="#121212"/>
	<polygon points="233.8,85 207.8,100 217.8,110 233.8,115" fill="#0e0e0e"/>
	<polygon points="225.2,-10 225.2,10 235.2,20 251.1,4" fill="#131313"/>
	<polygon points="251.1,-4 225.2,10 235.2,20 251.1,25" fill="#1c1c1c"/>
	<polygon points="225.2,10 225.2,30 235.2,40 251.1,25" fill="#1c1c1c"/>
	<polygon points="251.1,15 225.2,30 235.2,40 251.1,45" fill="#1d1d1d"/>
	<polygon points="225.2,30 225.2,50 235.2,60 251.1,45" fill="#C4C4C4"/>
	<polygon points="251.1,35 225.2,50 235.2,60 251.1,65" fill="#1c1c1c"/>
	<polygon points="225.2,50 225.2,70 235.2,80 251.1,65" fill="#C4C4C4"/>
	<polygon points="251.1,55 225.2,70 235.2,80 251.1,85" fill="#A5A5A5"/>
	<polygon points="225.2,70 225.2,90 235.2,100 251.1,85" fill="#0a0a0a"/>
	<polygon points="251.1,75 225.2,90 235.2,100 251.1,105" fill="#171717"/>
	<polygon points="225.2,90 225.2,110 235.2,120 251.1,105" fill="#181818"/>
	<polygon points="268.5,-15 242.5,0 252.5,10 268.5,15" fill="#171717"/>
	<polygon points="242.5,0 242.5,20 252.5,30 268.5,15" fill="#131313"/>
	<polygon points="268.5,5 242.5,20 252.5,30 268.5,35" fill="#181818"/>
	<polygon points="242.5,20 242.5,40 252.5,50 268.5,35" fill="#0d0d0d"/>
	<polygon points="268.5,25 242.5,40 252.5,50 268.5,55" fill="#141414"/>
	<polygon points="242.5,40 242.5,60 252.5,70 268.5,55" fill="#080808"/>
	<polygon points="268.5,45 242.5,60 252.5,70 268.5,75" fill="#080808"/>
	<polygon points="242.5,60 242.5,80 252.5,90 268.5,75" fill="#151515"/>
	<polygon points="268.5,65 242.5,80 252.5,90 268.5,95" fill="#131313"/>
	<polygon points="242.5,80 242.5,100 252.5,110 268.5,95" fill="#151515"/>
	<polygon points="268.5,85 242.5,100 252.5,110 268.5,115" fill="#0c0c0c"/>
	<polygon points="259.8,-10 259.8,10 269.8,20 285.8,4" fill="#080808"/>
	<polygon points="285.8,-4 259.8,10 269.8,20 285.8,25" fill="#1e1e1e"/>
	<polygon points="259.8,10 259.8,30 269.8,40 285.8,25" fill="#0b0b0b"/>
	<polygon points="285.8,15 259.8,30 269.8,40 285.8,45" fill="#C4C4C4"/>
	<polygon points="259.8,30 259.8,50 269.8,60 285.8,45" fill="#E0E0E0"/>
	<polygon points="285.8,35 259.8,50 269.8,60 285.8,65" fill="#E0E0E0"/>
	<polygon points="259.8,50 259.8,70 269.8,80 285.8,65" fill="#E0E0E0"/>
	<polygon points="285.8,55 259.8,70 269.8,80 285.8,85" fill="#E0E0E0"/>
	<polygon points="259.8,70 259.8,90 269.8,100 285.8,85" fill="#0e0e0e"/>
	<polygon points="285.8,75 259.8,90 269.8,100 285.8,105" fill="#0a0a0a"/>
	<polygon points="259.8,90 259.8,110 269.8,120 285.8,105" fill="#191919"/>
	<polygon points="303.1,-15 277.1,0 287.1,10 303.1,15" fill="#141414"/>
	<polygon points="277.1,0 277.1,20 287.1,30 303.1,15" fill="#0f0f0f"/>
	<polygon points="303.1,5 277.1,20 287.1,30 303.1,35" fill="#131313"/>
	<polygon points="277.1,20 277.1,40 287.1,50 303.1,35" fill="#C4C4C4"/>
	<polygon points="303.1,25 277.1,40 287.1,50 303.1,55" fill="#A5A5A5"/>
	<polygon points="277.1,40 277.1,60 287.1,70 303.1,55" fill="#A5A5A5"/>
	<polygon points="303.1,45 277.1,60 287.1,70 303.1,75" fill="#A5A5A5"/>
	<polygon points="277.1,60 277.1,80 287.1,90 303.1,75" fill="#A5A5A5"/>
	<polygon points="303.1,65 277.1,80 287.1,90 303.1,95" fill="#161616"/>
	<polygon points="277.1,80 277.1,100 287.1,110 303.1,95" fill="#171717"/>
	<polygon points="303.1,85 277.1,100 287.1,110 303.1,115" fill="#181818"/>
	<polygon points="294.4,-10 294.4,10 304.4,20 320.4,4" fill="#0b0b0b"/>
	<polygon points="320.4,-4 294.4,10 304.4,20 320.4,25" fill="#1d1d1d"/>
	<polygon points="294.4,10 294.4,30 304.4,40 320.4,25" fill="#0e0e0e"/>
	<polygon points="320.4,15 294.4,30 304.4,40 320.4,45" fill="#0c0c0c"/>
	<polygon points="294.4,30 294.4,50 304.4,60 320.4,45" fill="#090909"/>
	<polygon points="320.4,35 294.4,50 304.4,60 320.4,65" fill="#111111"/>
	<polygon points="294.4,50 294.4,70 304.4,80 320.4,65" fill="#171717"/>
	<polygon points="320.4,55 294.4,70 304.4,80 320.4,85" fill="#131313"/>
	<polygon points="294.4,70 294.4,90 304.4,100 320.4,85" fill="#090909"/>
	<polygon points="320.4,75 294.4,90 304.4,100 320.4,105" fill="#171717"/>
	<polygon points="294.4,90 294.4,110 304.4,120 320.4,105" fill="#070707"/>
	<polygon points="337.7,-15 311.8,0 321.8,10 337.7,15" fill="#191919"/>
	<polygon points="311.8,0 311.8,20 321.8,30 337.7,15" fill="#080808"/>
	<polygon points="337.7,5 311.8,20 321.8,30 337.7,35" fill="#0c0c0c"/>
	<polygon points="311.8,20 311.8,40 321.8,50 337.7,35" fill="#1b1b1b"/>
	<polygon points="337.7,25 311.8,40 321.8,50 337.7,55" fill="#C4C4C4"/>
	<polygon points="311.8,40 311.8,60 321.8,70 337.7,55" fill="#E0E0E0"/>
	<polygon points="337.7,45 311.8,60 321.8,70 337.7,75" fill="#E0E0E0"/>
	<polygon points="311.8,60 311.8,80 321.8,90 337.7,75" fill="#E0E0E0"/>
	<polygon points="337.7,65 311.8,80 321.8,90 337.7,95" fill="#0a0a0a"/>
	<polygon points="311.8,80 311.8,100 321.8,110 337.7,95" fill="#1a1a1a"/>
	<polygon points="337.7,85 311.8,100 321.8,110 337.7,115" fill="#131313"/>
	<polygon points="329.1,-10 329.1,10 339.1,20 355.1,4" fill="#070707"/>
	<polygon points="355.1,-4 329.1,10 339.1,20 355.1,25" fill="#151515"/>
	<polygon points="329.1,10 329.1,30 339.1,40 355.1,25" fill="#151515"/>
	<polygon points="355.1,15 329.1,30 339.1,40 355.1,45" fill="#C4C4C4"/>
	<polygon points="329.1,30 329.1,50 339.1,60 355.1,45" fill="#C4C4C4"/>
	<polygon points="355.1,35 329.1,50 339.1,60 355.1,65" fill="#1e1e1e"/>
	<polygon points="329.1,50 329.1,70 339.1,80 355.1,65" fill="#C4C4C4"/>
	<polygon points="355.1,55 329.1,70 339.1,80 355.1,85" fill="#171717"/>
	<polygon points="329.1,70 329.1,90 339.1,100 355.1,85" fill="#181818"/>
	<polygon points="355.1,75 329.1,90 339.1,100 355.1,105" fill="#050505"/>
	<polygon points="329.1,90 329.1,110 339.1,120 355.1,105" fill="#0a0a0a"/>
	<polygon points="372.4,-15 346.4,0 356.4,10 372.4,15" fill="#0d0d0d"/>
	<polygon points="346.4,0 346.4,20 356.4,30 372.4,15" fill="#0c0c0c"/>
	<polygon points="372.4,5 346.4,20 356.4,30 372.4,35" fill="#1b1b1b"/>
	<polygon points="346.4,20 346.4,40 356.4,50 372.4,35" fill="#C4C4C4"/>
	<polygon points="372.4,25 346.4,40 356.4,50 372.4,55" fill="#C4C4C4"/>
	<polygon points="346.4,40 346.4,60 356.4,70 372.4,55" fill="#151515"/>
	<polygon points="372.4,45 346.4,60 356.4,70 372.4,75" fill="#C4C4C4"/>
	<polygon points="346.4,60 346.4,80 356.4,90 372.4,75" fill="#1b1b1b"/>
	<polygon points="372.4,65 346.4,80 356.4,90 372.4,95" fill="#1a1a1a"/>
	<polygon points="346.4,80 346.4,100 356.4,110 372.4,95" fill="#080808"/>
	<polygon points="372.4,85 346.4,100 356.4,110 372.4,115" fill="#1a1a1a"/>
	<polygon points="363.7,-10 363.7,10 373.7,20 389.7,4" fill="#1a1a1a"/>
	<polygon points="389.7,-4 363.7,10 373.7,20 389.7,25" fill="#1b1b1b"/>
	<polygon points="363.7,10 363.7,30 373.7,40 389.7,25" fill="#0a0a0a"/>
	<polygon points="389.7,15 363.7,30 373.7,40 389.7,45" fill="#0e0e0e"/>
	<polygon points="363.7,30 363.7,50 373.7,60 389.7,45" fill="#C4C4C4"/>
	<polygon points="389.7,35 363.7,50 373.7,60 389.7,65" fill="#A5A5A5"/>
	<polygon points="363.7,50 363.7,70 373.7,80 389.7,65" fill="#A5A5A5"/>
	<polygon points="389.7,55 363.7,70 373.7,80 389.7,85" fill="#A5A5A5"/>
	<polygon points="363.7,70 363.7,90 373.7,100 389.7,85" fill="#1c1c1c"/>
	<polygon points="389.7,75 363.7,90 373.7,100 389.7,105" fill="#0f0f0f"/>
	<polygon points="363.7,90 363.7,110 373.7,120 389.7,105" fill="#080808"/>
	<polygon points="407.0,-15 381.1,0 391.1,10 407.0,15" fill="#0e0e0e"/>
	<polygon points="381.1,0 381.1,20 391.1,30 407.0,15" fill="#131313"/>
	<polygon points="407.0,5 381.1,20 391.1,30 407.0,35" fill="#1c1c1c"/>
	<polygon points="381.1,20 381.1,40 391.1,50 407.0,35" fill="#0e0e0e"/>
	<polygon points="407.0,25 381.1,40 391.1,50 407.0,55" fill="#0d0d0d"/>
	<polygon points="381.1,40 381.1,60 391.1,70 407.0,55" fill="#1a1a1a"/>
	<polygon points="407.0,45 381.1,60 391.1,70 407.0,75" fill="#151515"/>
	<polygon points="381.1,60 381.1,80 391.1,90 407.0,75" fill="#0f0f0f"/>
	<polygon points="407.0,65 381.1,80 391.1,90 407.0,95" fill="#0e0e0e"/>
	<polygon points="381.1,80 381.1,100 391.1,110 407.0,95" fill="#161616"/>
	<polygon points="407.0,85 381.1,100 391.1,110 407.0,115" fill="#1b1b1b"/>
	<polygon points="398.4,-10 398.4,10 408.4,20 424.4,4" fill="#161616"/>
	<polygon points="424.4,-4 398.4,10 408.4,20 424.4,25" fill="#1d1d1d"/>
	<polygon points="398.4,10 398.4,30 408.4,40 424.4,25" fill="#191919"/>
	<polygon points="424.4,15 398.4,30 408.4,40 424.4,45" fill="#C4C4C4"/>
	<polygon points="398.4,30 398.4,50 408.4,60 424.4,45" fill="#E0E0E0"/>
	<polygon points="424.4,35 398.4,50 408.4,60 424.4,65" fill="#E0E0E0"/>
	<polygon points="398.4,50 398.4,70 408.4,80 424.4,65" fill="#E0E0E0"/>
	<polygon points="424.4,55 398.4,70 408.4,80 424.4,85" fill="#E0E0E0"/>
	<polygon points="398.4,70 398.4,90 408.4,100 424.4,85" fill="#050505"/>
	<polygon points="424.4,75 398.4,90 408.4,100 424.4,105" fill="#0b0b0b"/>
	<polygon points="398.4,90 398.4,110 408.4,120 424.4,105" fill="#121212"/>
	<polygon points="441.7,-15 415.7,0 425.7,10 441.7,15" fill="#0c0c0c"/>
	<polygon points="415.7,0 415.7,20 425.7,30 441.7,15" fill="#141414"/>
	<polygon points="441.7,5 415.7,20 425.7,30 441.7,35" fill="#1b1b1b"/>
	<polygon points="415.7,20 415.7,40 425.7,50 441.7,35" fill="#C4C4C4"/>
	<polygon points="441.7,25 415.7,40 425.7,50 441.7,55" fill="#C4C4C4"/>
	<polygon points="415.7,40 415.7,60 425.7,70 441.7,55" fill="#171717"/>
	<polygon points="441.7,45 415.7,60 425.7,70 441.7,75" fill="#080808"/>
	<polygon points="415.7,60 415.7,80 425.7,90 441.7,75" fill="#111111"/>
	<polygon points="441.7,65 415.7,80 425.7,90 441.7,95" fill="#151515"/>
	<polygon points="415.7,80 415.7,100 425.7,110 441.7,95" fill="#131313"/>
	<polygon points="441.7,85 415.7,100 425.7,110 441.7,115" fill="#161616"/>
	<polygon points="433.0,-10 433.0,10 443.0,20 459.0,4" fill="#060606"/>
	<polygon points="459.0,-4 433.0,10 443.0,20 459.0,25" fill="#161616"/>
	<polygon points="433.0,10 433.0,30 443.0,40 459.0,25" fill="#0e0e0e"/>
	<polygon points="459.0,15 433.0,30 443.0,40 459.0,45" fill="#171717"/>
	<polygon points="433.0,30 433.0,50 443.0,60 459.0,45" fill="#C4C4C4"/>
	<polygon points="459.0,35 433.0,50 443.0,60 459.0,65" fill="#C4C4C4"/>
	<polygon points="433.0,50 433.0,70 443.0,80 459.0,65" fill="#0b0b0b"/>
	<polygon points="459.0,55 433.0,70 443.0,80 459.0,85" fill="#0b0b0b"/>
	<polygon points="433.0,70 433.0,90 443.0,100 459.0,85" fill="#161616"/>
	<polygon points="459.0,75 433.0,90 443.0,100 459.0,105" fill="#181818"/>
	<polygon points="433.0,90 433.0,110 443.0,120 459.0,105" fill="#1b1b1b"/>
	<polygon points="476.3,-15 450.3,0 460.3,10 476.3,15" fill="#101010"/>
	<polygon points="450.3,0 450.3,20 460.3,30 476.3,15" fill="#141414"/>
	<polygon points="476.3,5 450.3,20 460.3,30 476.3,35" fill="#101010"/>
	<polygon points="450.3,20 450.3,40 460.3,50 476.3,35" fill="#A5A5A5"/>
	<polygon points="476.3,25 450.3,40 460.3,50 476.3,55" fill="#A5A5A5"/>
	<polygon points="450.3,40 450.3,60 460.3,70 476.3,55" fill="#C4C4C4"/>
	<polygon points="476.3,45 450.3,60 460.3,70 476.3,75" fill="#A5A5A5"/>
	<polygon points="450.3,60 450.3,80 460.3,90 476.3,75" fill="#A5A5A5"/>
	<polygon points="476.3,65 450.3,80 460.3,90 476.3,95" fill="#1d1d1d"/>
	<polygon points="450.3,80 450.3,100 460.3,110 476.3,95" fill="#060606"/>
	<polygon points="476.3,85 450.3,100 460.3,110 476.3,115" fill="#0a0a0a"/>
	<polygon points="467.7,-10 467.7,10 477.7,20 493.6,4" fill="#141414"/>
	<polygon points="493.6,-4 467.7,10 477.7,20 493.6,25" fill="#111111"/>
	<polygon points="467.7,10 467.7,30 477.7,40 493.6,25" fill="#0d0d0d"/>
	<polygon points="493.6,15 467.7,30 477.7,40 493.6,45" fill="#141414"/>
	<polygon points="467.7,30 467.7,50 477.7,60 493.6,45" fill="#050505"/>
	<polygon points="493.6,35 467.7,50 477.7,60 493.6,65" fill="#171717"/>
	<polygon points="467.7,50 467.7,70 477.7,80 493.6,65" fill="#121212"/>
	<polygon points="493.6,55 467.7,70 477.7,80 493.6,85" fill="#161616"/>
	<polygon points="467.7,70 467.7,90 477.7,100 493.6,85" fill="#0b0b0b"/>
	<polygon points="493.6,75 467.7,90 477.7,100 493.6,105" fill="#121212"/>
	<polygon points="467.7,90 467.7,110 477.7,120 493.6,105" fill="#070707"/>
</svg>