<svg width="484.9742261192856" height="100.0" xmlns="http://www.w3.org/2000/svg">
	<polygon points="277.2,60 294.5,50 277.2,40 277.2,20 259.8,30 259.8,50 259.8,70 277.2,80 294.5,70" fill="#E0E0E0"/>
	<polygon points="34.8,20 17.2,30 17.2,50 17.2,70 34.8,80 34.8,60 34.8,40" fill="#E0E0E0"/>
	<polygon points="121.2,70 138.5,60 121.2,50 121.2,30 104,40 104,60 104,80" fill="#E0E0E0"/>
	<polygon points="207.8,80 207.8,60 207.8,40 207.8,20 190.5,30 190.5,50 190.5,70" fill="#E0E0E0"/>
	<polygon points="329,70 346.5,60 329,50 329,30 311.8,40 311.8,60 311.8,80" fill="#E0E0E0"/>
	<polygon points="398.2,70 415.8,80 415.8,60 415.8,40 415.8,20 398.2,30 398.2,50" fill="#E0E0E0"/>
	<polygon points="415.8,40 433,50 450.2,60 467.8,70 467.8,50 467.8,30 450.2,40 433,30 415.8,20 398.2,30" fill="#C4C4C4"/>
	<polygon points="277.2,20 259.8,30 277.2,40 294.5,50 294.5,30" fill="#C4C4C4"/>
	<polygon points="34.8,20 17.2,30 34.8,40 52,50 69.2,40 86.5,50 86.5,30 69.2,20 52,30" fill="#C4C4C4"/>
	<polygon points="346.5,20 329,30 311.8,40 329,50 346.5,40 363.8,50 346.5,60 363.8,70 381,60 381,40 363.8,30" fill="#C4C4C4"/>
	<polygon points="207.8,40 225.2,50 207.8,60 225.2,70 242.5,80 242.5,60 225.2,50 242.5,40 225.2,30 207.8,20 190.5,30" fill="#C4C4C4"/>
	<polygon points="121.2,70 138.5,60 121.2,50" fill="#C4C4C4"/>
	<polygon points="121.2,30 104,40 121.2,50 138.5,40 156,50 138.5,60 156,70 173.2,60 173.2,40 156,30 138.5,20" fill="#C4C4C4"/>
	<polygon points="329,70 346.5,60 329,50" fill="#C4C4C4"/>
	<polygon points="69.2,60 69.2,80 86.5,70 86.5,50 86.5,30 69.2,40" fill="#A5A5A5"/>
	<polygon points="277.2,40 277.2,60 277.2,80 294.5,70 294.5,50 294.5,30" fill="#A5A5A5"/>
	<polygon points="467.8,30 450.2,20 450.2,40 467.8,50" fill="#A5A5A5"/>
	<polygon points="173.2,80 173.2,60 173.2,40 156,50 156,70" fill="#A5A5A5"/>
	<polygon points="363.8,50 363.8,70 381,80 381,60 381,40" fill="#A5A5A5"/>
	<polygon points="467.8,70 467.8,50 450.2,60 450.2,80" fill="#A5A5A5"/>
	<polygon points="242.5,60 225.2,70 242.5,80" fill="#A5A5A5"/>
</svg>